<svg width="1343" height="635" viewBox="0 0 1343 635" fill="none" xmlns="http://www.w3.org/2000/svg">
<path d="M1174.44 222.649V512.193L874.325 222.649H1174.44Z" fill="url(#paint0_linear)"/>
<path d="M950.354 0H1343V375.908L950.354 0Z" fill="url(#paint1_linear)"/>
<path d="M492.183 634.001L490.683 216.659C413.654 216.659 295.11 230.055 151.556 328.982C67.5251 386.891 0 494.221 0 494.221L0 635L492.183 634.001Z" fill="url(#paint2_linear)"/>
<path fill-rule="evenodd" clip-rule="evenodd" d="M741.463 0.980827L1.18737 141.569V141.759H0.186999L0 140.778L0.186993 140.743L0.186999 1.97926V0.980833L1.18737 0.980833H734.46V1.29437L741.276 0L741.463 0.980827ZM730.854 1.97926L1.18737 140.553L1.18737 1.97926H730.854Z" fill="url(#paint3_linear)" fill-opacity="0.2"/>
<path d="M730.854 1.97926L1.18737 140.553L1.18737 1.97926H730.854Z" fill="url(#paint4_linear)" fill-opacity="0.2"/>
<defs>
<linearGradient id="paint0_linear" x1="1050.5" y1="223" x2="1068.01" y2="487.033" gradientUnits="userSpaceOnUse">
<stop stop-color="#E6E8F5"/>
<stop offset="0.520833" stop-color="#F0F2FA" stop-opacity="0.6"/>
<stop offset="1" stop-color="#FAFAFD" stop-opacity="0"/>
</linearGradient>
<linearGradient id="paint1_linear" x1="1175.5" y1="12.5" x2="1311.5" y2="338.5" gradientUnits="userSpaceOnUse">
<stop stop-color="#E6E7F5"/>
<stop offset="0.328125" stop-color="#E8EAF5"/>
<stop offset="1" stop-color="#F5F6FB" stop-opacity="0"/>
</linearGradient>
<linearGradient id="paint2_linear" x1="246.092" y1="216.659" x2="246.092" y2="635" gradientUnits="userSpaceOnUse">
<stop stop-color="#E6E8F5"/>
<stop offset="0.505208" stop-color="#EAEDF6"/>
<stop offset="1" stop-color="#FCFDFE"/>
</linearGradient>
<linearGradient id="paint3_linear" x1="370.732" y1="0" x2="370.732" y2="141.759" gradientUnits="userSpaceOnUse">
<stop stop-color="#E6E7F5"/>
<stop offset="1" stop-color="#EAEDF6"/>
</linearGradient>
<linearGradient id="paint4_linear" x1="370.732" y1="0" x2="370.732" y2="141.759" gradientUnits="userSpaceOnUse">
<stop stop-color="#E6E7F5"/>
<stop offset="1" stop-color="#EAEDF6"/>
</linearGradient>
</defs>
</svg>
